<?xml version="1.0" encoding="iso-8859-1"?>
<!-- Generator: Adobe Illustrator 19.0.0, SVG Export Plug-In . SVG Version: 6.00 Build 0)  -->
<svg version="1.1" id="Capa_1" xmlns="http://www.w3.org/2000/svg" xmlns:xlink="http://www.w3.org/1999/xlink" x="0px" y="0px"
	 viewBox="0 0 512 512" style="enable-background:new 0 0 512 512;" xml:space="preserve">
<path style="fill:#FFC870;" d="M443,502.063H149c-11.046,0-20-8.954-20-20v-372c0-11.046,8.954-20,20-20h294
	c11.046,0,20,8.954,20,20v372C463,493.109,454.046,502.063,443,502.063z"/>
<path style="fill:#FFDAA0;" d="M403,462.063H109c-11.046,0-20-8.954-20-20v-372c0-11.046,8.954-20,20-20h294
	c11.046,0,20,8.954,20,20v372C423,453.109,414.046,462.063,403,462.063z"/>
<path style="fill:#FFFFFF;" d="M362.937,422h-294c-11.046,0-20-8.954-20-20V30c0-11.046,8.954-20,20-20h294c11.046,0,20,8.954,20,20
	v372C382.937,413.046,373.982,422,362.937,422z"/>
<rect x="104.94" y="84" style="fill:#BAEE83;" width="96" height="96"/>
<path d="M362.937,432h-294c-16.542,0-30-13.458-30-30V216.333c0-5.523,4.478-10,10-10c5.522,0,10,4.477,10,10V402
	c0,5.514,4.486,10,10,10h294c5.514,0,10-4.486,10-10V30c0-5.514-4.486-10-10-10h-294c-5.514,0-10,4.486-10,10v102
	c0,5.523-4.478,10-10,10c-5.522,0-10-4.477-10-10V30c0-16.542,13.458-30,30-30h294c16.542,0,30,13.458,30,30v372
	C392.937,418.542,379.479,432,362.937,432z"/>
<path d="M48.937,186.78c-2.63,0-5.21-1.07-7.07-2.93c-1.86-1.87-2.93-4.44-2.93-7.08c0-2.62,1.069-5.2,2.93-7.07
	c1.86-1.86,4.44-2.92,7.07-2.92c2.63,0,5.21,1.06,7.069,2.92c1.86,1.87,2.931,4.44,2.931,7.07c0,2.64-1.07,5.22-2.931,7.08
	C54.146,185.71,51.566,186.78,48.937,186.78z"/>
<path d="M88.996,472.06c-2.63,0-5.21-1.06-7.069-2.93c-1.86-1.86-2.931-4.43-2.931-7.07c0-2.63,1.07-5.21,2.931-7.07
	c1.859-1.86,4.439-2.93,7.069-2.93c2.641,0,5.21,1.07,7.07,2.93s2.93,4.44,2.93,7.07c0,2.64-1.069,5.21-2.93,7.07
	C94.206,471,91.637,472.06,88.996,472.06z"/>
<path d="M403,472.063H129c-5.522,0-10-4.477-10-10s4.478-10,10-10h274c5.514,0,10-4.486,10-10v-392c0-5.523,4.478-10,10-10
	s10,4.477,10,10v392C433,458.605,419.542,472.063,403,472.063z"/>
<path d="M443.063,512h-314c-5.522,0-10-4.477-10-10s4.478-10,10-10h314c5.514,0,10-4.486,10-10V90c0-5.523,4.478-10,10-10
	s10,4.477,10,10v392C473.063,498.542,459.605,512,443.063,512z"/>
<path d="M200.937,190h-96c-5.522,0-10-4.477-10-10V84c0-5.523,4.478-10,10-10h96c5.522,0,10,4.477,10,10v96
	C210.937,185.523,206.459,190,200.937,190z M114.937,170h76V94h-76V170z"/>
<path d="M128.035,286.127L128.035,286.127c-2.652,0-5.195-1.054-7.071-2.929l-19.432-19.432c-3.905-3.905-3.905-10.237,0-14.142
	c3.908-3.904,10.238-3.905,14.143,0l12.36,12.361l26.583-26.583c3.907-3.905,10.237-3.904,14.143,0
	c3.905,3.905,3.905,10.237,0,14.142l-33.654,33.654C133.23,285.073,130.688,286.127,128.035,286.127z"/>
<path d="M332.604,269H215.937c-5.522,0-10-4.477-10-10s4.478-10,10-10h116.667c5.522,0,10,4.477,10,10
	C342.604,264.523,338.126,269,332.604,269z"/>
<path d="M326.937,94h-70c-5.522,0-10-4.477-10-10s4.478-10,10-10h70c5.522,0,10,4.477,10,10S332.459,94,326.937,94z"/>
<path d="M326.937,142h-70c-5.522,0-10-4.477-10-10s4.478-10,10-10h70c5.522,0,10,4.477,10,10
	C336.937,137.523,332.459,142,326.937,142z"/>
<path d="M326.937,190h-70c-5.522,0-10-4.477-10-10s4.478-10,10-10h70c5.522,0,10,4.477,10,10S332.459,190,326.937,190z"/>
<path d="M128.035,362.494L128.035,362.494c-2.652,0-5.195-1.054-7.071-2.929l-19.432-19.432c-3.905-3.905-3.905-10.237,0-14.142
	c3.908-3.904,10.238-3.905,14.143,0l12.36,12.361l26.583-26.583c3.907-3.905,10.237-3.904,14.143,0
	c3.905,3.905,3.905,10.237,0,14.142l-33.654,33.654C133.23,361.44,130.688,362.494,128.035,362.494z"/>
<path d="M332.604,345H215.937c-5.522,0-10-4.477-10-10s4.478-10,10-10h116.667c5.522,0,10,4.477,10,10S338.126,345,332.604,345z"/>
<g>
</g>
<g>
</g>
<g>
</g>
<g>
</g>
<g>
</g>
<g>
</g>
<g>
</g>
<g>
</g>
<g>
</g>
<g>
</g>
<g>
</g>
<g>
</g>
<g>
</g>
<g>
</g>
<g>
</g>
</svg>
